<svg width="32" height="32" viewBox="0 0 32 32" fill="none" xmlns="http://www.w3.org/2000/svg">
<path d="M19.0937 4H12.9052L12.1953 7.53127C11.6075 7.79316 11.0486 8.11487 10.5275 8.49127L7.09313 7.336L4 12.664L6.72226 15.0422C6.65652 15.6791 6.65652 16.3209 6.72226 16.9578L4 19.336L7.09423 24.664L10.5275 23.5098C11.0454 23.8829 11.6028 24.2058 12.1953 24.4687L12.9052 28H19.0937L19.8036 24.4687C20.3914 24.2068 20.9503 23.8851 21.4714 23.5087L24.9058 24.664L28 19.336L25.2766 16.9578C25.3424 16.3209 25.3424 15.6791 25.2766 15.0422L27.9989 12.664L24.9047 7.336L21.4725 8.49018C20.9513 8.11416 20.3924 7.79281 19.8047 7.53127L19.0937 4ZM15.9994 20.3636C14.8354 20.3636 13.7191 19.9039 12.896 19.0856C12.0729 18.2672 11.6105 17.1573 11.6105 16C11.6105 14.8427 12.0729 13.7328 12.896 12.9144C13.7191 12.0961 14.8354 11.6364 15.9994 11.6364C17.1635 11.6364 18.2798 12.0961 19.1029 12.9144C19.926 13.7328 20.3884 14.8427 20.3884 16C20.3884 17.1573 19.926 18.2672 19.1029 19.0856C18.2798 19.9039 17.1635 20.3636 15.9994 20.3636Z" fill="#D64550"/>
</svg>
