<svg width="32" height="32" viewBox="0 0 32 32" fill="none" xmlns="http://www.w3.org/2000/svg">
<path d="M10.7573 29.9966C8.91571 26.2521 9.89699 24.1073 11.3119 22.0856C12.8615 19.8716 13.2623 17.6812 13.2623 17.6812C13.2623 17.6812 14.482 19.2287 13.9931 21.6503C16.1457 19.3097 16.5534 15.5786 16.2269 14.1493C21.0935 17.472 23.1735 24.6658 20.3714 29.9983C35.2822 21.7582 24.0805 9.42769 22.13 8.03887C22.7796 9.42769 22.904 11.7784 21.5893 12.9208C19.3659 4.6875 13.8704 3 13.8704 3C14.52 7.24575 11.514 11.8898 8.61511 15.3593C8.51319 13.6667 8.40435 12.4973 7.49391 10.8773C7.29005 13.9536 4.88352 16.4612 4.23049 19.5426C3.34769 23.7158 4.89216 26.7718 10.7556 30L10.7573 29.9966Z" fill="#D64550"/>
</svg>
